<?xml version="1.0" encoding="utf-8"?>
<!-- Generator: Adobe Illustrator 26.5.0, SVG Export Plug-In . SVG Version: 6.00 Build 0)  -->
<svg version="1.1" xmlns="http://www.w3.org/2000/svg" xmlns:xlink="http://www.w3.org/1999/xlink" x="0px" y="0px"
	 viewBox="0 0 758.12 754.68" style="enable-background:new 0 0 758.12 754.68;" xml:space="preserve">
<style type="text/css">
	.st0{opacity:0.59;}
	.st1{fill:#61A3E5;}
	.st2{fill:#2A65E8;}
	.st3{fill:#6C9CBA;}
	.st4{fill:#5C96C6;}
	.st5{fill:#B5B9BC;}
	.st6{fill:#467389;}
	.st7{fill:#E4ECF2;}
	.st8{fill:#2FAF63;}
	.st9{fill:#A0616A;}
	.st10{fill:#2F2E41;}
	.st11{fill:#3F3D56;}
	.st12{fill:#25824A;}
</style>
<g id="Layer_2">
</g>
<g id="Layer_1">
	<g>
		<g class="st0">
			<ellipse class="st1" cx="379.06" cy="535.67" rx="368.54" ry="208.5"/>
			<path class="st2" d="M379.79,754.7c-17.65,0-35.41-0.7-53.18-2.13c-99.43-7.96-187.64-37.5-248.39-83.19
				C21.84,626.98-5.61,573.98,0.95,520.15c3.83-31.39,19.44-62.42,45.15-89.76c26.37-28.04,62.48-51.92,107.31-71
				c80.2-34.13,178.97-48.55,278.1-40.62c99.43,7.96,187.64,37.5,248.38,83.19c56.39,42.41,83.83,95.42,77.27,149.24
				c-3.83,31.39-19.44,62.42-45.15,89.76c-26.37,28.04-62.48,51.92-107.31,71v0C538.88,739.97,460.56,754.7,379.79,754.7z
				 M378.93,337.6c-75.75,0-152.16,13.38-217.29,41.1C79.67,413.59,28.7,466.07,21.8,522.69c-2.73,22.36,1.48,44.64,12.51,66.2
				c11.69,22.86,30.71,44.29,56.53,63.72c119.47,89.86,346.31,107.81,505.64,40.03l0,0c81.97-34.88,132.94-87.36,139.84-143.98
				c2.73-22.36-1.48-44.64-12.51-66.2c-11.69-22.86-30.71-44.29-56.53-63.72C596.64,365.6,488.48,337.6,378.93,337.6z"/>
		</g>
		<g>
			<path class="st3" d="M319.76,329.9c5.66,3.24,11.33,6.47,17,9.71c9.68,5.52,19.36,11.05,29.04,16.57
				c-1.72,0.97-3.27,1.07-4.39,0.42l-46.04-26.28C316.49,330.97,318.04,330.88,319.76,329.9z"/>
		</g>
		<g>
			<path class="st4" d="M361.4,356.61l-46.04-26.28c-1.11-0.64-1.8-1.98-1.8-3.89l46.04,26.28
				C359.6,354.63,360.3,355.97,361.4,356.61z"/>
		</g>
		<g>
			<path class="st3" d="M403.87,327.61l-46.04-26.27l-0.15-51.14l46.03,26.28L403.87,327.61z"/>
		</g>
		<g>
			<path class="st3" d="M355.89,246.31l46.04,26.28c1.11,0.63,1.79,1.97,1.8,3.89l-46.04-26.28
				C357.68,248.29,356.99,246.95,355.89,246.31z"/>
		</g>
		<g>
			<path class="st4" d="M355.89,246.31l46.04,26.28c-1.13-0.64-2.68-0.55-4.39,0.42l-46.04-26.28
				C353.21,245.76,354.76,245.67,355.89,246.31z"/>
		</g>
		<g>
			<path class="st5" d="M295.6,529.13l-46.04-26.27l-0.32-111.36l46.04,26.27L295.6,529.13z"/>
		</g>
		<g>
			<path class="st4" d="M359.6,352.72l-46.03-26.28l-0.15-51.14l46.04,26.28L359.6,352.72z"/>
		</g>
		<g>
			<path class="st4" d="M365.61,291.11l-46.04-26.28l31.92-18.1l46.04,26.28L365.61,291.11z"/>
		</g>
		<g>
			<path class="st4" d="M359.46,301.58l-46.04-26.28c-0.01-3.86,2.73-8.52,6.15-10.47l46.04,26.28
				C362.19,293.05,359.44,297.72,359.46,301.58z"/>
		</g>
		<g>
			<path class="st3" d="M255.34,366.43c1.62,0.92,3.76,2.15,5.38,3.07c0.85,0.48,1.97,1.12,2.82,1.61c1.74,1,4.08,2.33,5.82,3.32
				c10.67,6.09,21.34,12.19,32.02,18.28c-1.72,0.97-3.27,1.07-4.39,0.42l-46.04-26.28C252.07,367.5,253.62,367.41,255.34,366.43
				L255.34,366.43z"/>
		</g>
		<g>
			<path class="st4" d="M296.99,393.13l-46.04-26.28c-1.11-0.64-1.8-1.98-1.8-3.89l46.04,26.28
				C295.19,391.15,295.88,392.5,296.99,393.13z"/>
		</g>
		<g>
			<path class="st3" d="M319.52,249.45c7.68,4.38,15.35,8.76,23.02,13.14c7.67,4.38,15.35,8.76,23.02,13.14
				c-1.71,0.97-3.27,1.07-4.39,0.42l-46.04-26.28C316.26,250.51,317.81,250.42,319.52,249.45z"/>
		</g>
		<g>
			<path class="st3" d="M339.46,364.14l-46.04-26.28l-0.15-51.14L339.32,313L339.46,364.14z"/>
		</g>
		<g>
			<path class="st4" d="M361.18,276.14l-46.04-26.28c-1.11-0.64-1.8-1.99-1.81-3.91l46.04,26.28
				C359.37,274.16,360.06,275.51,361.18,276.14z"/>
		</g>
		<g>
			<path class="st3" d="M291.48,282.83l46.04,26.28c1.11,0.63,1.79,1.97,1.8,3.89l-46.04-26.28
				C293.28,284.81,292.58,283.47,291.48,282.83z"/>
		</g>
		<g>
			<path class="st3" d="M403.64,247.13l-46.04-26.27l-0.15-51.11l46.04,26.27L403.64,247.13z"/>
		</g>
		<g>
			<path class="st4" d="M291.48,282.83l46.04,26.28c-1.13-0.64-2.68-0.55-4.39,0.42l-46.04-26.28
				C288.8,282.28,290.35,282.19,291.48,282.83z"/>
		</g>
		<g>
			<path class="st3" d="M355.65,165.83l46.04,26.28c1.11,0.64,1.8,1.99,1.81,3.91l-46.04-26.28
				C357.46,167.82,356.76,166.47,355.65,165.83z"/>
		</g>
		<g>
			<path class="st4" d="M355.65,165.83l46.04,26.28c-1.13-0.64-2.68-0.55-4.38,0.42l-46.04-26.28
				C352.98,165.28,354.53,165.19,355.65,165.83z"/>
		</g>
		<g>
			<path class="st4" d="M295.19,389.25l-46.03-26.28l-0.15-51.14l46.03,26.27L295.19,389.25z"/>
		</g>
		<g>
			<path class="st4" d="M301.2,327.64l-46.04-26.27l31.92-18.1l46.04,26.27L301.2,327.64z"/>
		</g>
		<g>
			<path class="st4" d="M295.04,338.1L249,311.82c-0.01-3.86,2.73-8.53,6.15-10.47l46.04,26.28
				C297.78,329.57,295.03,334.24,295.04,338.1z"/>
		</g>
		<g>
			<path class="st4" d="M359.37,272.23l-46.03-26.27l-0.15-51.12l46.03,26.28L359.37,272.23z"/>
		</g>
		<g>
			<path class="st4" d="M365.38,210.63l-46.04-26.28l31.92-18.1l46.04,26.27L365.38,210.63z"/>
		</g>
		<g>
			<path class="st4" d="M359.22,221.12l-46.04-26.28c-0.01-3.86,2.73-8.55,6.15-10.49l46.04,26.28
				C361.96,212.56,359.21,217.25,359.22,221.12z"/>
		</g>
		<g>
			<path class="st3" d="M190.94,402.96c7.68,4.38,15.35,8.76,23.02,13.14c7.67,4.38,15.35,8.76,23.02,13.14
				c-1.72,0.97-3.27,1.07-4.39,0.42l-46.04-26.28C187.66,404.02,189.22,403.93,190.94,402.96z"/>
		</g>
		<g>
			<path class="st4" d="M232.58,429.66l-46.04-26.28c-1.11-0.64-1.8-1.98-1.8-3.89l46.04,26.28
				C230.77,427.68,231.47,429.02,232.58,429.66z"/>
		</g>
		<g>
			<path class="st3" d="M255.12,285.97c0.79,0.45,1.85,1.05,2.64,1.51c3.79,2.17,7.58,4.33,11.37,6.49
				c10.67,6.09,21.34,12.19,32.02,18.28c-1.71,0.97-3.27,1.07-4.39,0.42l-46.04-26.28C251.84,287.03,253.4,286.94,255.12,285.97
				L255.12,285.97z"/>
		</g>
		<g>
			<path class="st3" d="M275.05,400.67l-46.04-26.27l-0.15-51.14l46.04,26.28L275.05,400.67z"/>
		</g>
		<g>
			<path class="st4" d="M296.76,312.67l-46.04-26.28c-1.11-0.64-1.8-1.99-1.81-3.91l46.04,26.28
				C294.96,310.68,295.65,312.04,296.76,312.67z"/>
		</g>
		<g>
			<path class="st3" d="M227.07,319.36l46.04,26.28c1.11,0.63,1.79,1.97,1.8,3.89l-46.04-26.28
				C228.86,321.34,228.17,320,227.07,319.36z"/>
		</g>
		<g>
			<path class="st3" d="M319.3,168.96c6.67,3.8,13.33,7.61,20,11.42c4.99,2.85,9.97,5.69,14.96,8.54c3.69,2.11,7.38,4.22,11.08,6.32
				c-1.72,0.97-3.27,1.07-4.4,0.43l-46.04-26.28C316.02,170.02,317.58,169.93,319.3,168.96L319.3,168.96z"/>
		</g>
		<g>
			<path class="st3" d="M339.23,283.65l-46.04-26.28l-0.15-51.11l46.04,26.28L339.23,283.65z"/>
		</g>
		<g>
			<path class="st4" d="M227.07,319.36l46.04,26.28c-1.13-0.64-2.68-0.55-4.39,0.42l-46.04-26.28
				C224.39,318.81,225.94,318.72,227.07,319.36z"/>
		</g>
		<g>
			<path class="st4" d="M360.94,195.67l-46.04-26.28c-1.11-0.63-1.79-1.98-1.8-3.9l46.04,26.28
				C359.14,193.69,359.83,195.04,360.94,195.67z"/>
		</g>
		<g>
			<path class="st3" d="M291.23,202.35l46.04,26.28c1.11,0.64,1.8,1.99,1.81,3.91l-46.04-26.28
				C293.04,204.34,292.34,202.99,291.23,202.35z"/>
		</g>
		<g>
			<path class="st3" d="M403.41,166.67l-46.04-26.28l-0.15-51.14l46.04,26.28L403.41,166.67z"/>
		</g>
		<g>
			<path class="st4" d="M291.23,202.35l46.04,26.28c-1.13-0.64-2.68-0.55-4.38,0.42l-46.04-26.28
				C288.56,201.8,290.11,201.71,291.23,202.35z"/>
		</g>
		<g>
			<path class="st3" d="M355.42,85.36l46.04,26.28c1.11,0.64,1.8,1.98,1.8,3.88l-46.04-26.28C357.22,87.34,356.53,86,355.42,85.36z"
				/>
		</g>
		<g>
			<path class="st4" d="M355.42,85.36l46.04,26.28c-1.13-0.64-2.68-0.56-4.39,0.42l-46.04-26.28
				C352.74,84.81,354.3,84.72,355.42,85.36z"/>
		</g>
		<g>
			<path class="st4" d="M230.78,425.77l-46.04-26.28l-0.15-51.14l46.03,26.28L230.78,425.77z"/>
		</g>
		<g>
			<path class="st4" d="M236.78,364.17l-46.04-26.28l31.93-18.1l46.03,26.28L236.78,364.17z"/>
		</g>
		<g>
			<path class="st4" d="M230.63,374.63l-46.04-26.28c-0.01-3.86,2.73-8.52,6.15-10.47l46.04,26.28
				C233.36,366.1,230.62,370.77,230.63,374.63z"/>
		</g>
		<g>
			<path class="st4" d="M294.96,308.76l-46.04-26.28l-0.15-51.11l46.03,26.28L294.96,308.76z"/>
		</g>
		<g>
			<path class="st4" d="M300.96,247.15l-46.04-26.28l31.93-18.1l46.03,26.28L300.96,247.15z"/>
		</g>
		<g>
			<path class="st4" d="M294.81,257.64l-46.04-26.28c-0.01-3.86,2.73-8.55,6.15-10.49l46.04,26.28
				C297.55,249.09,294.8,253.78,294.81,257.64z"/>
		</g>
		<g>
			<path class="st4" d="M359.14,191.77l-46.04-26.28l-0.15-51.14l46.03,26.27L359.14,191.77z"/>
		</g>
		<g>
			<path class="st4" d="M365.14,130.16l-46.04-26.27l31.93-18.1l46.03,26.28L365.14,130.16z"/>
		</g>
		<g>
			<path class="st4" d="M358.99,140.63l-46.04-26.28c-0.01-3.84,2.73-8.52,6.15-10.47l46.04,26.28
				C361.73,132.1,358.98,136.79,358.99,140.63z"/>
		</g>
		<g>
			<path class="st3" d="M190.7,322.5c6.67,3.8,13.33,7.61,20,11.42c4.99,2.85,9.97,5.69,14.96,8.54c3.69,2.11,7.38,4.22,11.08,6.32
				c-1.72,0.97-3.27,1.07-4.39,0.42l-46.04-26.28C187.44,323.56,188.99,323.47,190.7,322.5L190.7,322.5z"/>
		</g>
		<g>
			<path class="st4" d="M232.36,349.19l-46.04-26.28c-1.11-0.64-1.8-1.99-1.81-3.91l46.04,26.28
				C230.55,347.21,231.24,348.56,232.36,349.19z"/>
		</g>
		<g>
			<path class="st3" d="M274.81,320.18l-46.03-26.28l-0.15-51.11l46.04,26.27L274.81,320.18z"/>
		</g>
		<g>
			<path class="st4" d="M296.52,232.19l-46.04-26.28c-1.11-0.63-1.79-1.98-1.8-3.9l46.04,26.28
				C294.73,230.21,295.42,231.56,296.52,232.19z"/>
		</g>
		<g>
			<path class="st3" d="M226.82,238.88l46.04,26.28c1.11,0.64,1.8,1.99,1.81,3.91l-46.04-26.28
				C228.63,240.87,227.93,239.52,226.82,238.88z"/>
		</g>
		<g>
			<path class="st3" d="M338.99,203.19l-46.03-26.27l-0.15-51.14l46.04,26.28L338.99,203.19z"/>
		</g>
		<g>
			<path class="st4" d="M226.82,238.88l46.04,26.28c-1.13-0.64-2.68-0.55-4.38,0.42l-46.04-26.28
				C224.15,238.33,225.7,238.24,226.82,238.88z"/>
		</g>
		<g>
			<path class="st3" d="M291.01,121.89l46.04,26.28c1.11,0.64,1.8,1.98,1.8,3.88l-46.04-26.28
				C292.81,123.87,292.11,122.53,291.01,121.89z"/>
		</g>
		<g>
			<path class="st4" d="M291.01,121.89l46.04,26.28c-1.13-0.64-2.68-0.56-4.39,0.42l-46.04-26.28
				C288.33,121.34,289.89,121.25,291.01,121.89z"/>
		</g>
		<g>
			<path class="st4" d="M230.55,345.28l-46.04-26.27l-0.15-51.11l46.03,26.27L230.55,345.28z"/>
		</g>
		<g>
			<path class="st4" d="M236.55,283.68l-46.03-26.27l31.92-18.1l46.03,26.27L236.55,283.68z"/>
		</g>
		<g>
			<path class="st4" d="M230.4,294.17l-46.04-26.28c-0.01-3.86,2.73-8.55,6.15-10.49l46.04,26.28
				C233.13,285.61,230.38,290.31,230.4,294.17z"/>
		</g>
		<g>
			<path class="st4" d="M294.73,228.29l-46.04-26.27l-0.15-51.14l46.03,26.28L294.73,228.29z"/>
		</g>
		<g>
			<path class="st4" d="M300.73,166.69l-46.03-26.28l31.92-18.1l46.03,26.28L300.73,166.69z"/>
		</g>
		<g>
			<path class="st4" d="M294.58,177.16l-46.04-26.28c-0.01-3.84,2.73-8.52,6.15-10.47l46.04,26.28
				C297.31,168.63,294.56,173.32,294.58,177.16z"/>
		</g>
		<g>
			<path class="st6" d="M357.83,301.34c0.01,3.84-2.75,8.54-6.15,10.47c-14.21,8.06-14.24,28.2-0.05,36.29l14.16,8.08l31.92-18.1
				c3.4-1.92,6.17-6.63,6.15-10.47L357.83,301.34L357.83,301.34z"/>
		</g>
		<g>
			<path class="st6" d="M287.27,348.33c-14.21,8.06-14.24,28.2-0.05,36.29l14.16,8.08l31.92-18.1c3.4-1.93,6.17-6.63,6.15-10.47
				l-46.04-26.28C293.43,341.7,290.67,346.39,287.27,348.33L287.27,348.33z"/>
		</g>
		<g>
			<path class="st6" d="M397.49,257.62c3.4-1.93,6.17-6.63,6.15-10.49l-46.04-26.28c0.01,3.86-2.75,8.56-6.15,10.49
				c-14.21,8.06-14.24,28.2-0.05,36.29l14.16,8.08L397.49,257.62L397.49,257.62z"/>
		</g>
		<g>
			<path class="st6" d="M222.86,384.86l-31.92,18.1l46.04,26.28l31.92-18.1c3.4-1.92,6.17-6.63,6.15-10.47l-46.04-26.28
				C229.03,378.23,226.26,382.93,222.86,384.86z"/>
		</g>
		<g>
			<path class="st6" d="M287.04,267.86c-14.21,8.06-14.24,28.2-0.05,36.29l14.16,8.08l31.92-18.1c3.4-1.92,6.17-6.63,6.15-10.49
				l-46.04-26.28C293.2,261.23,290.43,265.93,287.04,267.86L287.04,267.86z"/>
		</g>
		<g>
			<path class="st6" d="M397.25,177.13c3.4-1.93,6.17-6.61,6.15-10.47l-46.04-26.28c0.01,3.86-2.75,8.54-6.15,10.47
				c-14.21,8.06-14.24,28.2-0.05,36.29l14.16,8.08L397.25,177.13L397.25,177.13z"/>
		</g>
		<g>
			<path class="st6" d="M268.67,330.67c3.4-1.93,6.17-6.63,6.15-10.49l-46.04-26.28c0.01,3.86-2.75,8.56-6.15,10.49l-31.92,18.1
				l46.04,26.28L268.67,330.67z"/>
		</g>
		<g>
			<path class="st6" d="M254.88,205.49c-1.72,0.97-3.27,1.07-4.4,0.43l46.04,26.28c1.12,0.64,2.68,0.54,4.4-0.43
				c-7.67-4.38-15.35-8.76-23.02-13.14C270.23,214.25,262.56,209.87,254.88,205.49z"/>
		</g>
		<g>
			<path class="st6" d="M292.96,176.92c0.01,3.86-2.75,8.54-6.15,10.47l-31.92,18.1l46.04,26.28l31.92-18.1
				c3.4-1.93,6.17-6.61,6.15-10.47L292.96,176.92z"/>
		</g>
		<g>
			<path class="st6" d="M228.55,213.44c0.01,3.86-2.75,8.54-6.15,10.47l-31.92,18.1l46.04,26.28l31.92-18.1
				c3.4-1.93,6.17-6.61,6.15-10.47L228.55,213.44z"/>
		</g>
		<g>
			<path class="st3" d="M190.47,242.01c-1.72,0.97-3.27,1.07-4.4,0.43l46.04,26.28c1.12,0.64,2.68,0.54,4.4-0.43
				c-7.67-4.38-15.35-8.76-23.02-13.14C205.82,250.77,198.15,246.39,190.47,242.01z"/>
		</g>
		<g>
			<path class="st4" d="M232.11,268.72l-46.04-26.28c-1.11-0.63-1.79-1.98-1.8-3.9l46.04,26.28
				C230.31,266.74,231,268.09,232.11,268.72z"/>
		</g>
		<g>
			<path class="st3" d="M274.58,239.72l-46.03-26.28l-0.15-51.14l46.03,26.28L274.58,239.72z"/>
		</g>
		<g>
			<path class="st3" d="M226.59,158.42l46.04,26.28c1.11,0.64,1.8,1.98,1.8,3.88L228.4,162.3
				C228.4,160.39,227.7,159.05,226.59,158.42z"/>
		</g>
		<g>
			<path class="st4" d="M226.59,158.42l46.04,26.28c-1.13-0.64-2.68-0.56-4.39,0.42l-46.04-26.28
				C223.92,157.87,225.47,157.77,226.59,158.42z"/>
		</g>
		<g>
			<path class="st4" d="M230.31,264.82l-46.04-26.28l-0.15-51.14l46.04,26.27L230.31,264.82z"/>
		</g>
		<g>
			<path class="st4" d="M236.32,203.22l-46.03-26.28l31.92-18.1l46.04,26.28L236.32,203.22z"/>
		</g>
		<g>
			<path class="st4" d="M230.17,213.68l-46.04-26.28c-0.01-3.84,2.73-8.52,6.15-10.47l46.04,26.28
				C232.9,205.15,230.16,209.84,230.17,213.68z"/>
		</g>
		<g>
			<path class="st7" d="M407.15,28.89c10.67-6.06,19.34-1.21,19.37,10.85l0.81,281.33c0.04,12.03-8.57,26.69-19.25,32.74
				l-68.54,38.87l0.32,111.36l-44.27,25.1l-0.32-111.36l-65.85,37.34c-10.66,6.04-19.32,1.17-19.35-10.86l-0.81-281.33
				c-0.04-12.05,8.57-26.69,19.23-32.73L407.15,28.89z M403.64,247.13l-0.15-51.11c-0.01-3.86-2.79-5.42-6.19-3.49l-31.92,18.1
				c-3.42,1.94-6.17,6.63-6.15,10.49l0.15,51.11c0.01,3.86,2.77,5.43,6.19,3.49l31.92-18.1
				C400.89,255.7,403.65,250.99,403.64,247.13z M339.23,283.66l-0.15-51.11c-0.01-3.86-2.79-5.42-6.19-3.49l-31.92,18.1
				c-3.42,1.94-6.17,6.63-6.15,10.49l0.15,51.11c0.01,3.86,2.77,5.43,6.19,3.49l31.92-18.1
				C336.47,292.22,339.24,287.52,339.23,283.66z M274.81,320.19l-0.15-51.11c-0.01-3.86-2.79-5.42-6.19-3.49l-31.92,18.1
				c-3.42,1.94-6.17,6.63-6.15,10.49l0.15,51.11c0.01,3.86,2.77,5.43,6.19,3.49l31.92-18.1
				C272.06,328.75,274.83,324.05,274.81,320.19z M403.41,166.67l-0.15-51.14c-0.01-3.84-2.79-5.39-6.19-3.47l-31.92,18.1
				c-3.42,1.94-6.17,6.63-6.15,10.47l0.15,51.14c0.01,3.86,2.77,5.4,6.19,3.47l31.92-18.1
				C400.65,175.21,403.42,170.53,403.41,166.67z M338.99,203.2l-0.15-51.14c-0.01-3.84-2.79-5.39-6.19-3.47l-31.92,18.1
				c-3.42,1.94-6.17,6.63-6.15,10.47l0.15,51.14c0.01,3.86,2.77,5.4,6.19,3.47l31.92-18.1C336.24,211.74,339.01,207.06,338.99,203.2
				z M274.58,239.73l-0.15-51.14c-0.01-3.84-2.79-5.39-6.19-3.47l-31.92,18.1c-3.42,1.94-6.17,6.63-6.15,10.47l0.15,51.14
				c0.01,3.86,2.77,5.4,6.19,3.47l31.92-18.1C271.83,248.27,274.59,243.59,274.58,239.73z M403.87,327.63l-0.15-51.14
				c-0.01-3.86-2.79-5.39-6.19-3.47l-31.92,18.1c-3.42,1.94-6.17,6.61-6.15,10.47l0.15,51.14c0.01,3.84,2.77,5.4,6.19,3.47
				l31.92-18.1C401.12,336.17,403.88,331.46,403.87,327.63z M339.45,364.15l-0.15-51.14c-0.01-3.86-2.79-5.39-6.19-3.47l-31.92,18.1
				c-3.42,1.94-6.17,6.61-6.15,10.47l0.15,51.14c0.01,3.84,2.77,5.4,6.19,3.47l31.92-18.1C336.7,372.7,339.47,367.99,339.45,364.15z
				 M275.04,400.68l-0.15-51.14c-0.01-3.86-2.79-5.39-6.19-3.47l-31.92,18.1c-3.42,1.94-6.17,6.61-6.15,10.47l0.15,51.14
				c0.01,3.84,2.77,5.4,6.19,3.46l31.92-18.1C272.29,409.22,275.05,404.52,275.04,400.68z"/>
		</g>
		<g>
			<path class="st5" d="M374.86,1.28c-3.51-2.01-8.37-1.72-13.74,1.33L182.45,103.92c-10.66,6.04-19.26,20.68-19.23,32.73
				l0.81,281.33c0.02,5.98,2.17,10.19,5.63,12.17l46.04,26.28c-3.47-1.98-5.62-6.19-5.63-12.17l-0.81-281.33
				c-0.03-12.05,8.57-26.69,19.23-32.73L407.15,28.89c5.37-3.05,10.24-3.33,13.74-1.33L374.86,1.28z"/>
		</g>
		<g>
			<path class="st8" d="M249.74,140.87c2.33-1.32,4.32-1.79,5.93-1.43c1.59,0.37,2.66,1.54,3.18,3.5l-5.26,2.98
				c-0.36-0.53-0.86-0.81-1.51-0.82c-0.67-0.02-1.44,0.23-2.34,0.73c-1.55,0.88-2.77,2.14-3.69,3.81c-0.93,1.66-1.39,3.45-1.38,5.36
				c0.01,2.02,0.51,3.32,1.48,3.92c0.99,0.57,2.32,0.38,4.03-0.59c1.17-0.66,2.15-1.55,2.96-2.67c0.81-1.15,1.39-2.44,1.76-3.9
				l-6.05,3.43l-0.01-3.95l10.34-5.87l0.01,4.99c-0.35,1.54-0.93,3.12-1.78,4.76c-0.83,1.63-1.91,3.16-3.2,4.6
				c-1.29,1.46-2.75,2.64-4.37,3.56c-1.94,1.1-3.65,1.6-5.17,1.5c-1.5-0.09-2.69-0.76-3.53-1.98c-0.86-1.21-1.28-2.9-1.29-5.07
				c-0.01-2.19,0.4-4.35,1.25-6.56c0.83-2.17,2.01-4.16,3.51-5.98C246.1,143.42,247.81,141.96,249.74,140.87L249.74,140.87z"/>
		</g>
		<g>
			<path class="st8" d="M271.44,133.16l0.02,5.67l-1.3,0.73c-1.19,0.68-2.08,1.49-2.67,2.38c-0.6,0.93-0.89,2.09-0.89,3.55
				l0.02,8.12l-4.75,2.7l-0.05-17.51l4.75-2.7v2.92c0.57-1.28,1.25-2.43,2.09-3.47C269.5,134.54,270.42,133.74,271.44,133.16z"/>
		</g>
		<g>
			<path class="st8" d="M288.38,132.23c0,0.49-0.02,1.05-0.08,1.62l-10.76,6.1c0.06,1.05,0.38,1.7,0.94,1.97
				c0.54,0.26,1.21,0.16,2.01-0.29c1.19-0.68,2.02-1.71,2.48-3.1l5.07-2.88c-0.27,1.31-0.72,2.6-1.41,3.91
				c-0.66,1.32-1.52,2.51-2.54,3.61c-1.02,1.12-2.15,2.02-3.42,2.74c-1.52,0.87-2.88,1.25-4.05,1.19c-1.19-0.06-2.13-0.56-2.81-1.55
				c-0.67-0.99-1.01-2.39-1.01-4.21c0-1.81,0.33-3.6,0.99-5.35c0.64-1.71,1.56-3.29,2.74-4.69c1.18-1.4,2.54-2.55,4.08-3.43
				c1.5-0.85,2.83-1.23,4.01-1.19s2.09,0.53,2.76,1.47c0.65,0.95,0.99,2.29,0.99,4.06L288.38,132.23z M277.55,136.96l5.96-3.38
				c0-0.92-0.3-1.48-0.84-1.71c-0.57-0.22-1.25-0.11-2.09,0.36c-0.81,0.46-1.48,1.1-2.02,1.93
				C278.02,135,277.67,135.94,277.55,136.96"/>
		</g>
		<g>
			<path class="st8" d="M305.5,122.53c0,0.49-0.02,1.05-0.08,1.62l-10.76,6.1c0.09,1.04,0.4,1.68,0.95,1.96
				c0.54,0.26,1.21,0.16,2.02-0.3c1.17-0.66,2-1.7,2.46-3.09l5.07-2.88c-0.27,1.31-0.72,2.6-1.39,3.9
				c-0.68,1.33-1.54,2.52-2.54,3.61c-1.02,1.12-2.16,2.03-3.42,2.74c-1.52,0.87-2.88,1.25-4.07,1.2c-1.19-0.06-2.11-0.57-2.78-1.56
				c-0.67-0.99-1.01-2.39-1.01-4.21c-0.01-1.82,0.3-3.59,0.97-5.33c0.64-1.71,1.58-3.3,2.76-4.7c1.17-1.39,2.54-2.55,4.08-3.43
				c1.5-0.85,2.83-1.23,4.01-1.19c1.17,0.05,2.07,0.55,2.74,1.49C305.15,119.42,305.48,120.76,305.5,122.53L305.5,122.53z
				 M294.69,127.24l5.94-3.37c0-0.92-0.27-1.5-0.84-1.71c-0.57-0.22-1.25-0.11-2.09,0.36c-0.83,0.48-1.48,1.1-2.02,1.93
				C295.15,125.3,294.82,126.21,294.69,127.24"/>
		</g>
		<g>
			<path class="st8" d="M317.44,107.08c1.81-1.03,3.25-1.19,4.35-0.46c1.09,0.7,1.63,2.23,1.64,4.54l0.03,10.24l-4.71,2.67
				l-0.03-9.51c0-1.17-0.28-1.92-0.82-2.27c-0.54-0.33-1.28-0.24-2.17,0.26c-0.92,0.52-1.63,1.25-2.16,2.19
				c-0.54,0.97-0.81,2.02-0.8,3.19l0.03,9.51l-4.75,2.7l-0.05-17.51l4.75-2.7v2.33c0.48-1.05,1.13-2.03,1.96-2.95
				C315.5,108.41,316.41,107.66,317.44,107.08L317.44,107.08z"/>
		</g>
		<g>
			<path class="st8" d="M333.56,97.87c1.94-1.1,3.57-1.43,4.88-1.03c1.32,0.41,2.18,1.55,2.58,3.39l-5.05,2.86
				c-0.44-1.07-1.25-1.29-2.48-0.6c-0.88,0.5-1.56,1.27-2.08,2.34c-0.52,1.05-0.76,2.3-0.76,3.71c0,1.44,0.26,2.38,0.78,2.84
				c0.52,0.48,1.21,0.47,2.09-0.03c1.23-0.7,2.04-1.82,2.47-3.41l5.05-2.86c-0.39,2.27-1.26,4.37-2.57,6.29
				c-1.31,1.92-2.93,3.43-4.85,4.52c-1.52,0.87-2.88,1.25-4.05,1.19c-1.19-0.06-2.11-0.57-2.76-1.57c-0.67-0.99-0.99-2.41-0.99-4.22
				c0-1.81,0.3-3.59,0.97-5.33c0.64-1.71,1.56-3.29,2.74-4.69C330.68,99.87,332.03,98.72,333.56,97.87L333.56,97.87z"/>
		</g>
		<g>
			<path class="st8" d="M348.28,84.05l0.07,23.23l-4.75,2.69l-0.07-23.23L348.28,84.05z"/>
		</g>
		<g>
			<path class="st8" d="M351.79,105.32l-0.05-17.51l4.75-2.7l0.05,17.51L351.79,105.32z"/>
		</g>
		<g>
			<path class="st8" d="M352.09,84.96c-0.54-0.24-0.79-0.77-0.8-1.6c0-0.83,0.24-1.67,0.79-2.54c0.52-0.84,1.21-1.51,2.04-1.98
				c0.81-0.46,1.48-0.56,2.01-0.31c0.54,0.26,0.79,0.82,0.8,1.64c0,0.82-0.24,1.65-0.79,2.5c-0.52,0.86-1.18,1.52-2,1.98
				C353.3,85.12,352.61,85.23,352.09,84.96z"/>
		</g>
		<g>
			<path class="st8" d="M366.78,79.03c1.96-1.11,3.59-1.44,4.88-1.03c1.32,0.41,2.18,1.55,2.6,3.38l-5.07,2.88
				c-0.44-1.07-1.25-1.29-2.48-0.6c-0.88,0.5-1.56,1.27-2.08,2.34c-0.52,1.05-0.76,2.3-0.76,3.71c0,1.44,0.26,2.38,0.78,2.84
				c0.52,0.48,1.21,0.47,2.09-0.03c1.23-0.7,2.04-1.82,2.47-3.41l5.07-2.88c-0.41,2.29-1.26,4.37-2.57,6.29
				c-1.33,1.94-2.93,3.43-4.88,4.53c-1.52,0.87-2.86,1.24-4.05,1.19c-1.17-0.07-2.09-0.58-2.76-1.57c-0.65-1-0.99-2.41-0.99-4.22
				c0-1.81,0.33-3.6,0.97-5.33c0.67-1.72,1.58-3.3,2.74-4.69C363.92,81.02,365.25,79.89,366.78,79.03L366.78,79.03z"/>
		</g>
		<g>
			<path class="st8" d="M381.5,65.21l0.04,12.85l4.67-9.79l5.89-3.33l-6.44,12.44l6.53,5.04l-5.88,3.33l-4.75-4.66l0.02,7.34
				l-4.75,2.69l-0.07-23.23L381.5,65.21z"/>
		</g>
		<g>
			<g>
				<polygon class="st9" points="446.75,636.38 435.1,636.38 429.56,591.45 446.75,591.45 				"/>
			</g>
			<g>
				<path class="st10" d="M447.16,648.54l-35.82,0v-0.45c0-7.7,6.24-13.94,13.94-13.94h0l6.54-4.96l12.21,4.96l3.13,0L447.16,648.54
					L447.16,648.54z"/>
			</g>
		</g>
		<g>
			<path class="st10" d="M439.37,404.48l-7.69,26.69c0,0-16.61,87.35-12.24,99.59c4.37,12.24,7.59,89.21,7.59,89.21h22.74
				c0,0,3.06-19.53,2.97-22.47c-0.09-2.94,5.16-50.14-1.84-57.13l30.59-76.92l48.08-40.21l-18.85-23.4L439.37,404.48L439.37,404.48z
				"/>
		</g>
		<g>
			<g>
				<path class="st9" d="M518.91,415.48l-1.85-26.19l14.81-3.14l0.97,27.76c0.58,0.62,1.09,1.33,1.49,2.12
					c2.17,4.34,0.4,9.62-3.94,11.79c-4.34,2.17-9.62,0.4-11.79-3.94C517.22,421.11,517.45,417.96,518.91,415.48L518.91,415.48z"/>
			</g>
			<g>
				<path class="st11" d="M495.39,247.55l-5.7,4.25l14.01,79.87l-2.05,4.89l2.73,2.57l0.84,6.14l11.03,57.06h16.82
					c-0.25-1.98,4.62-4.01,4.37-6.12c-0.28-2.41-2.25-6.05-2.53-8.59c-0.09-0.79-0.17-1.58-0.26-2.38
					c-0.13-1.17-0.26-2.36-0.38-3.55c-0.1-0.93-0.2-1.86-0.3-2.79c-2.15-20.29-3.03-43.13-4.28-62.85
					c-1.58-25.14-3.75-45.21-9.86-48.49L495.39,247.55L495.39,247.55z"/>
			</g>
		</g>
		<g>
			<g>
				<polygon class="st9" points="494.82,636.38 483.17,636.38 477.63,591.45 494.83,591.45 				"/>
			</g>
			<g>
				<path class="st10" d="M495.23,648.54l-35.82,0v-0.45c0-7.7,6.24-13.94,13.94-13.94h0l6.54-4.96l12.21,4.96l3.13,0L495.23,648.54
					L495.23,648.54z"/>
			</g>
		</g>
		<g>
			<path class="st10" d="M470.57,415l6.12,53.32l-13.55,55.5l11.8,96.59l21.85,1.75c0,0,10.49-70.8,0.87-95.28l24.47-96.15
				l-18.36-10.49L470.57,415z"/>
		</g>
		<g>
			<path class="st11" d="M493.37,234.84c-3.86-4.12-2.54-7.87-8.5-8.92c-4.04-0.71-8.91,0-13.05,0
				c-10.4-0.01-11.97,5.74-17.95,13.38c-15.42,19.68-1.07,35.48-4.72,59.01c-3.39,21.86,5.69,33.77,1.67,55.7
				c-1.91,10.44-5.62,25.13-12.11,37.13c-3.58,6.63-5.3,14.34-4.42,21.68c0.78,6.5,84.71,7.26,87.03,5.66
				c2.73-1.88,1.81-5.92,2.08-8.73c0.72-7.62,1.46-12.96-0.37-20.74c-1.72-7.31-1.69-15.81-1.71-23.37
				c-0.02-7.29-10.29,4.74-9.69-2.53c0.76-9.28,2.27-18.35,3.93-27.55c1.29-7.12,1.79-14.43,3.68-21.39
				c2.18-8.03,4.77-15.09,4.86-23.5c0.07-6.55,1.65-15.71-0.96-21.71c-3.84-8.84-11.58-16.81-18.1-23.89
				c-3.25-3.52-6.47-5.81-10.18-8.73"/>
		</g>
		<g>
			<g>
				<path class="st9" d="M361.62,275.14l23.63,11.44l-4.65,14.41l-24.55-12.99c-0.82,0.2-1.69,0.28-2.58,0.23
					c-4.85-0.28-8.54-4.44-8.26-9.29c0.28-4.85,4.44-8.54,9.29-8.26C357.58,270.87,360.2,272.63,361.62,275.14L361.62,275.14z"/>
			</g>
			<g>
				<path class="st11" d="M434.1,340.45c-2.26-1.2-36.74-23.19-54.87-33.4c-0.34-0.19-2.68,1.06-3.01,0.88
					c-0.5-0.28-0.02-2.36-0.49-2.63c-1.01-0.57-2.89,0.72-3.73,0.25c-3.03-1.71-2.39-8.99-2.39-8.99l6.12-14.86l10-0.32l2.23,3.82
					l4.74-0.57l3.12,4.07l36.01,14.13c1.4-18.77,8.91-34.26,17.04-49.41l3.29,0.62c8.29,1.57,13.82,9.46,12.46,17.78l-9.49,58.28
					c-0.92,5.42-4.76,9.79-10.01,11.41C441.33,342.68,437.39,342.19,434.1,340.45L434.1,340.45z"/>
			</g>
		</g>
		<g>
			<circle class="st9" cx="469.85" cy="193.65" r="26.75"/>
		</g>
		<g>
			<path class="st10" d="M499.54,194.46c-0.94-0.38-1.87-0.69-2.68-0.89c4.59,5.78-3.16,10.85-4.36,16.77
				c0.1,4.7-2.47,6.83-6.96,8.11l0.1-0.37c-36.53,9.36,2-21.79-26.56-22.65c-4.35,0.25,1.46-13.43-3.02-12.74
				c-11.36,1.75-11.89,0.55-13.11,8.74c-2.21,0.72-5.25-2.62-4.89-6.12c-0.81-1.47-2.93-0.53-3.78-2.76
				c-0.9-1.7-2.61-12.85,1.29-7.64c0.26-3.56-0.75-10.83,3.69-4.62c-0.58-2.83,1.88-1.6,2.9,0.08c0.73-1.65,1.45-3.3,2.17-4.95
				c-0.2,0.74-0.07,1.56,0.3,2.29c2.06-4.38,5.21-4.78,10.12-6.01c-0.06,1.34-0.03,2.91,0.16,4.13c5.7-9.45,19.52-6.81,25.02,1.54
				c3.49,0.8,4.97-0.41,8.46,0.46C497.81,170.17,502.1,184.66,499.54,194.46L499.54,194.46z"/>
		</g>
		<g>
			<circle class="st8" cx="89.45" cy="123.13" r="18"/>
		</g>
		<g>
			<circle class="st8" cx="119.95" cy="158.63" r="12.5"/>
		</g>
		<g>
			<circle class="st12" cx="85.45" cy="177.13" r="9"/>
		</g>
		<g>
			<circle class="st8" cx="113.45" cy="196.13" r="6"/>
		</g>
		<g>
			<circle class="st12" cx="645.2" cy="365.84" r="18"/>
		</g>
		<g>
			<circle class="st8" cx="598.98" cy="358.45" r="12.5"/>
		</g>
		<g>
			<circle class="st8" cx="613.36" cy="322.04" r="9"/>
		</g>
		<g>
			<circle class="st12" cx="579.72" cy="325.62" r="6"/>
		</g>
		<g>
			<circle class="st8" cx="131.95" cy="482.63" r="12.5"/>
		</g>
		<g>
			<circle class="st8" cx="150.45" cy="462.13" r="6"/>
		</g>
	</g>
</g>
</svg>
