<svg width="38" height="53" viewBox="0 0 38 53" fill="none" xmlns="http://www.w3.org/2000/svg">
<rect width="38" height="53" rx="19" fill="#4AAF6E"/>
<path d="M19.4636 40.291C19.4519 40.291 19.4519 40.291 19.4402 40.3014C19.4167 40.0726 19.405 39.8438 19.3816 39.6255C19.323 39.0328 19.241 38.4401 19.1121 37.8474C18.8661 36.5372 18.2803 35.3518 17.4133 34.2808C16.5346 33.1994 15.4334 32.326 14.1446 31.6189C13.4534 31.2446 12.7504 30.9118 12.0475 30.5583C11.8132 30.4439 11.5788 30.3191 11.3562 30.1839C11.2391 30.1112 11.1219 30.028 11.0399 29.9344C10.7704 29.6432 10.7704 29.2481 11.0399 28.957C11.1336 28.853 11.2625 28.7594 11.3914 28.6866C11.5906 28.5618 11.8014 28.4786 12.0358 28.4163C12.4458 28.3019 12.8676 28.1875 13.2894 28.0939C14.953 27.7196 16.6284 27.4284 18.3037 27.1269C19.2762 26.9501 20.2251 26.7733 21.1741 26.5446C21.9239 26.3678 22.6738 26.1599 23.365 25.8583C23.8336 25.6503 24.2788 25.4216 24.6537 25.0992C25.3098 24.5481 25.5559 23.8619 25.4153 23.0716C25.345 22.6453 25.1809 22.2502 24.9583 21.8758C24.4077 20.9608 23.6345 20.2329 22.6738 19.6402C21.8419 19.1411 20.9281 18.8188 19.9205 18.746C19.3347 18.7044 18.7489 18.7356 18.1749 18.8396C17.343 18.9851 16.5464 19.2555 15.7965 19.5986C14.5781 20.1809 13.4768 20.94 12.5161 21.8238C11.2274 23.0092 10.2432 24.361 9.58715 25.9103C9.14194 26.9813 8.89591 28.1043 8.90763 29.2585C8.91934 29.9032 9.00135 30.5271 9.16538 31.151C9.43484 32.2012 9.88004 33.189 10.5361 34.104C11.1571 34.9775 12.024 35.6118 13.0902 36.0173C13.7346 36.2565 14.4141 36.3812 15.0819 36.4748C15.6911 36.558 16.3003 36.6516 16.8978 36.7556C17.343 36.8388 17.7648 36.9843 18.1514 37.2131C18.4678 37.3899 18.6669 37.6602 18.7724 37.9826C18.8661 38.2945 18.9247 38.6168 18.9364 38.9392C18.9598 39.4591 18.913 39.9686 18.8427 40.4885C18.831 40.5405 18.831 40.5717 18.831 40.6341C19.0418 40.6133 19.241 40.5821 19.4402 40.5717C19.6393 40.5613 19.8385 40.5925 20.0377 40.5925C20.0377 40.5405 20.0377 40.4885 20.0377 40.4469C20.0143 40.0934 20.0025 39.7398 19.9791 39.3967C19.9674 38.9496 19.9908 38.5129 20.108 38.0865C20.2251 37.6602 20.4829 37.3483 20.9164 37.1403C21.1741 37.0155 21.4436 36.9116 21.7248 36.8388C22.252 36.7036 22.7909 36.6412 23.3298 36.5684C23.8453 36.4852 24.3726 36.4228 24.888 36.3189C26.0948 36.0797 27.0906 35.5182 27.9107 34.7071C28.4731 34.156 28.8832 33.5114 29.1878 32.8251C29.7736 31.4941 30.043 30.1112 29.9962 28.6762C29.9844 28.2811 29.9376 27.8756 29.879 27.4908C29.7501 26.7214 29.5392 25.9623 29.2581 25.224C29.0237 24.6209 28.7543 24.049 28.4028 23.4875C28.3677 23.4355 28.3325 23.3836 28.2974 23.3316C28.2739 23.3524 28.2856 23.3836 28.2974 23.3939C28.6957 24.3714 28.8246 25.3696 28.7074 26.399C28.6254 27.0333 28.4497 27.6364 28.1568 28.2187C27.8639 28.7802 27.4538 29.2689 26.9032 29.6744C26.5986 29.8824 26.294 30.1008 25.9893 30.2879C25.0052 30.9014 24.0679 31.5773 23.2244 32.3468C22.744 32.7835 22.2871 33.2202 21.8771 33.7089C21.139 34.6032 20.5883 35.591 20.2017 36.6412C19.8385 37.6082 19.6159 38.5961 19.5222 39.6151C19.5105 39.8438 19.487 40.0726 19.4636 40.291ZM14.2383 19.7754C14.2852 19.7546 14.3203 19.7442 14.3555 19.7234C14.8007 19.4738 15.2576 19.2139 15.7145 18.9851C16.7338 18.4756 17.8 18.1013 18.9833 18.0077C19.4167 17.9765 19.8502 17.9869 20.272 18.0597C20.6821 18.1221 21.0921 18.2365 21.4905 18.3612C22.252 18.6004 22.9784 18.9123 23.693 19.2555C23.8336 19.3283 23.9742 19.3907 24.1265 19.4427C24.1851 19.4634 24.2437 19.4842 24.3023 19.4842C24.396 19.4946 24.4428 19.4634 24.4311 19.3699C24.4194 19.2867 24.4077 19.2035 24.3726 19.1307C24.2788 18.9539 24.1968 18.7876 24.0914 18.6212C23.529 17.7789 22.8729 16.9887 22.1348 16.2608C21.303 15.429 20.3774 14.6699 19.405 13.9628C18.913 13.6093 18.4092 13.2661 17.9054 12.9334C17.7531 12.8294 17.5891 12.7566 17.4251 12.6735C17.3548 12.6423 17.2727 12.6215 17.2024 12.6215C17.0736 12.6111 17.0384 12.6735 17.0736 12.767C17.097 12.8398 17.1322 12.9126 17.179 12.975C17.2845 13.1518 17.4016 13.3181 17.5071 13.4949C17.9874 14.2956 18.0577 15.1378 17.7297 15.9905C17.5305 16.5104 17.2259 16.9783 16.8627 17.415C16.3706 18.0181 15.7848 18.5588 15.1639 19.0579C14.8593 19.3075 14.543 19.5362 14.2383 19.7754ZM15.4216 30.7246C15.5505 30.9222 15.6794 31.099 15.7965 31.2965C16.1363 31.1198 16.4526 30.9326 16.7924 30.7662C16.6752 30.5791 16.5698 30.4127 16.4644 30.2359C16.1129 30.4023 15.7731 30.5583 15.4216 30.7246ZM17.2727 30.5271C17.6242 30.3607 17.964 30.2047 18.3037 30.0384C18.21 29.872 18.1397 29.716 18.046 29.5601C17.6828 29.7056 17.3313 29.8616 16.9681 30.0072C17.0736 30.1735 17.1673 30.3399 17.2727 30.5271ZM19.6628 28.9778C19.2879 29.1129 18.9247 29.2273 18.5498 29.3625C18.6318 29.5289 18.7021 29.664 18.7841 29.82C19.1473 29.6744 19.487 29.5393 19.8385 29.3937C19.7917 29.2585 19.7331 29.1233 19.6628 28.9778ZM21.4553 28.8634C21.3967 28.7386 21.3616 28.6242 21.3147 28.5098C20.9398 28.6138 20.5649 28.7178 20.19 28.8114C20.2486 28.957 20.2954 29.0817 20.354 29.2065C20.7406 29.1025 21.0921 28.9882 21.4553 28.8634ZM23.0721 28.2915C23.0252 28.1875 22.9901 28.1043 22.9432 28.0211C22.5683 28.1355 22.2168 28.2603 21.8419 28.3747C21.8888 28.489 21.9357 28.593 21.9708 28.7074C22.3574 28.5514 22.7089 28.4267 23.0721 28.2915ZM24.5483 27.4596C24.1851 27.5844 23.8336 27.7092 23.4704 27.8444C23.5056 27.9275 23.5407 28.0003 23.5759 28.0939C23.9508 27.9483 24.3023 27.8132 24.6537 27.6468C24.6303 27.5948 24.5952 27.5428 24.5717 27.5012C24.5717 27.4908 24.56 27.4804 24.5483 27.4596ZM25.1458 27.3972C25.4856 27.2101 25.7785 26.9709 26.0831 26.7422C26.0479 26.7006 26.0128 26.6798 25.9893 26.6486C25.673 26.8565 25.3684 27.0437 25.0521 27.2517C25.0755 27.2933 25.1106 27.3452 25.1458 27.3972ZM27.0438 25.4632C27.032 25.4632 27.0203 25.4632 27.0203 25.4528C26.9618 25.5568 26.8915 25.6607 26.8329 25.7543C26.7626 25.8583 26.6923 25.9519 26.6103 26.0455C26.5283 26.1391 26.4463 26.2222 26.3642 26.3158C26.3994 26.3366 26.4345 26.3574 26.458 26.3782C26.704 26.1183 26.8915 25.8375 27.0438 25.536C27.0672 25.5152 27.0438 25.484 27.0438 25.4632ZM27.3484 24.5897C27.3367 24.5897 27.3367 24.5897 27.3249 24.5897C27.3132 24.6417 27.3015 24.6833 27.2898 24.7353C27.2781 24.7873 27.2547 24.8185 27.2547 24.8705C27.2429 24.9225 27.2078 24.9537 27.2312 25.0057C27.2429 25.0057 27.2547 25.0057 27.2664 25.0161C27.2898 24.8601 27.3249 24.7249 27.3484 24.5897Z" fill="white"/>
<path d="M19.4636 40.2911C19.487 40.0727 19.4987 39.844 19.5222 39.6256C19.6159 38.6066 19.8502 37.6187 20.2017 36.6517C20.5883 35.6015 21.1272 34.6137 21.877 33.7194C22.2871 33.2307 22.744 32.794 23.2244 32.3573C24.0679 31.5878 25.0052 30.9119 25.9893 30.2984C26.3056 30.1009 26.6103 29.8929 26.9032 29.685C27.4538 29.2898 27.8521 28.8011 28.1567 28.2292C28.4614 27.6469 28.6371 27.0438 28.7074 26.4095C28.8363 25.3801 28.7074 24.3715 28.2973 23.4045C28.2856 23.3837 28.2856 23.3733 28.2973 23.3421C28.3325 23.3941 28.3676 23.4461 28.4028 23.4981C28.7425 24.0492 29.0237 24.6418 29.258 25.2345C29.5392 25.9728 29.7501 26.7215 29.879 27.5013C29.9376 27.8965 29.9844 28.2916 29.9961 28.6867C30.043 30.1113 29.7618 31.5046 29.1877 32.8356C28.8831 33.5219 28.4731 34.1666 27.9107 34.7177C27.0789 35.5287 26.0948 36.0798 24.888 36.3294C24.3725 36.4334 23.8453 36.5061 23.3298 36.5789C22.7909 36.6621 22.252 36.7245 21.7247 36.8493C21.4436 36.9221 21.1741 37.0261 20.9164 37.1508C20.4829 37.3588 20.2251 37.6707 20.108 38.0971C19.9908 38.5338 19.9674 38.9705 19.9791 39.4072C19.9908 39.7608 20.0142 40.1143 20.0377 40.4574C20.0377 40.499 20.0377 40.5406 20.0377 40.603C19.8268 40.5926 19.6276 40.5718 19.4402 40.5822C19.241 40.5926 19.0418 40.6238 18.8309 40.6446C18.8309 40.5926 18.8309 40.5406 18.8426 40.499C18.9129 39.9791 18.9481 39.4696 18.9364 38.9497C18.9247 38.6274 18.8778 38.305 18.7723 37.9931C18.6786 37.6603 18.4677 37.4108 18.1514 37.2236C17.7648 37.0053 17.3547 36.8493 16.8978 36.7661C16.2886 36.6517 15.6794 36.5685 15.0819 36.4853C14.3906 36.3918 13.7228 36.2774 13.0902 36.0278C12.0123 35.6223 11.1688 34.988 10.5361 34.1146C9.88002 33.1995 9.44653 32.2221 9.17707 31.1615C9.01304 30.5376 8.93103 29.9033 8.91932 29.269C8.89589 28.1148 9.15364 27.0022 9.59884 25.9208C10.2549 24.3715 11.2391 23.0197 12.5278 21.8343C13.4768 20.9609 14.5781 20.2122 15.8082 19.6403C16.5698 19.2868 17.343 19.0268 18.1866 18.8813C18.7723 18.7773 19.3464 18.7357 19.9322 18.7877C20.9398 18.8605 21.8536 19.1724 22.6854 19.6819C23.6461 20.2642 24.4311 20.9921 24.97 21.9175C25.1926 22.2919 25.3567 22.687 25.427 23.1133C25.5675 23.914 25.3098 24.5795 24.6654 25.141C24.2905 25.4633 23.8453 25.7025 23.3767 25.9C22.6737 26.2016 21.9356 26.4095 21.1858 26.5863C20.2368 26.8151 19.2761 26.9918 18.3154 27.1686C16.6401 27.4701 14.953 27.7613 13.301 28.1356C12.8793 28.2292 12.4692 28.3436 12.0475 28.458C11.8131 28.5204 11.6022 28.6035 11.4031 28.7283C11.2742 28.8115 11.157 28.8947 11.0516 28.9987C10.7821 29.2794 10.7821 29.685 11.0516 29.9761C11.1453 30.0697 11.2508 30.1633 11.3679 30.2257C11.6022 30.3608 11.8248 30.4856 12.0592 30.6C12.7504 30.9535 13.4651 31.2863 14.1563 31.6606C15.4333 32.3573 16.5346 33.2307 17.425 34.3225C18.292 35.3935 18.8778 36.5685 19.1355 37.8787C19.2644 38.461 19.3464 39.0537 19.405 39.6568C19.4284 39.8855 19.4402 40.1143 19.4636 40.3327C19.4519 40.2911 19.4636 40.2911 19.4636 40.2911Z" fill="white"/>
<path d="M14.2384 19.7758C14.543 19.5366 14.8593 19.3079 15.1522 19.0687C15.7732 18.5696 16.359 18.0393 16.851 17.4258C17.2142 16.9891 17.5071 16.5212 17.718 16.0013C18.0578 15.1382 17.9875 14.3064 17.4954 13.5057C17.39 13.3289 17.2728 13.1522 17.1674 12.9858C17.1205 12.913 17.0854 12.8506 17.0619 12.7778C17.0385 12.6738 17.0854 12.6219 17.2142 12.6323C17.2962 12.6427 17.3783 12.6531 17.4368 12.6842C17.6009 12.757 17.7649 12.8298 17.9055 12.9338C18.4092 13.2769 18.913 13.6097 19.3934 13.9736C20.3658 14.6807 21.2913 15.4398 22.1232 16.2716C22.8496 17.0099 23.5174 17.7897 24.0797 18.632C24.1852 18.7984 24.2789 18.9647 24.3609 19.1415C24.396 19.2143 24.4195 19.2975 24.4195 19.3807C24.4312 19.4638 24.3843 19.495 24.2906 19.495C24.232 19.4846 24.1617 19.4742 24.1149 19.4534C23.9743 19.3911 23.822 19.3287 23.6814 19.2663C22.9784 18.9231 22.252 18.6112 21.4788 18.372C21.0805 18.2473 20.6821 18.1329 20.2604 18.0705C19.8269 18.0081 19.3934 17.9873 18.9716 18.0185C17.7883 18.1121 16.7339 18.4864 15.7029 18.9959C15.2343 19.2247 14.8008 19.4846 14.3438 19.7342C14.3087 19.755 14.2736 19.7758 14.2384 19.7966C14.2501 19.7758 14.2501 19.7758 14.2384 19.7758Z" fill="white"/>
<path d="M15.4218 30.7247C15.7732 30.5479 16.113 30.392 16.4645 30.2256C16.5699 30.4024 16.6753 30.5687 16.7925 30.7559C16.4527 30.9327 16.1364 31.1094 15.7967 31.2862C15.6678 31.099 15.5506 30.9223 15.4218 30.7247Z" fill="white"/>
<path d="M17.2726 30.5272C17.1672 30.3504 17.0735 30.184 16.968 30.0073C17.3312 29.8617 17.6827 29.7057 18.0459 29.5601C18.1396 29.7265 18.2099 29.8721 18.3036 30.0385C17.9639 30.2048 17.6241 30.3608 17.2726 30.5272Z" fill="white"/>
<path d="M19.6627 28.9778C19.7213 29.1234 19.7916 29.2586 19.8501 29.4042C19.4987 29.5497 19.1472 29.6849 18.7957 29.8305C18.7137 29.6745 18.6434 29.5289 18.5614 29.373C18.9246 29.2378 19.2878 29.113 19.6627 28.9778Z" fill="white"/>
<path d="M21.4554 28.8634C21.0805 28.9778 20.729 29.1026 20.3541 29.2274C20.2955 29.0922 20.2486 28.9674 20.1901 28.8322C20.565 28.7283 20.9282 28.6243 21.3148 28.5307C21.3734 28.6347 21.4202 28.7387 21.4554 28.8634Z" fill="white"/>
<path d="M23.0722 28.2915C22.6973 28.4267 22.3458 28.5619 21.9826 28.6867C21.9358 28.5723 21.8889 28.4787 21.8538 28.3539C22.2287 28.2395 22.5801 28.1148 22.955 28.0004C22.9902 28.1044 23.0253 28.1876 23.0722 28.2915Z" fill="white"/>
<path d="M24.5484 27.4597C24.5719 27.4805 24.5719 27.4909 24.5836 27.5013C24.607 27.5533 24.6422 27.5845 24.6656 27.6469C24.3141 27.8133 23.9627 27.9485 23.5877 28.094C23.5526 28.0108 23.5174 27.9277 23.4823 27.8445C23.8338 27.7197 24.1853 27.5949 24.5484 27.4597Z" fill="white"/>
<path d="M25.1459 27.3973C25.1107 27.3453 25.0756 27.2934 25.0521 27.2518C25.3685 27.0438 25.6731 26.8566 25.9894 26.6487C26.0128 26.6799 26.048 26.7007 26.0831 26.7423C25.7902 26.9814 25.4973 27.2206 25.1459 27.3973Z" fill="white"/>
<path d="M27.0438 25.4633C27.0438 25.4841 27.0672 25.5153 27.0555 25.5257C26.9032 25.8272 26.7157 26.108 26.4697 26.3679C26.4346 26.3471 26.4111 26.3263 26.376 26.3055C26.4697 26.2119 26.54 26.1288 26.622 26.0352C26.704 25.9416 26.7743 25.848 26.8446 25.744C26.9149 25.6504 26.9735 25.5465 27.0321 25.4425C27.0321 25.4633 27.0321 25.4633 27.0438 25.4633Z" fill="white"/>
<path d="M27.3495 24.5899C27.314 24.725 27.2904 24.8602 27.255 24.9954C27.2432 24.9954 27.2314 24.9954 27.2196 24.985C27.196 24.933 27.2432 24.9018 27.2432 24.8498C27.255 24.7978 27.2668 24.7666 27.2786 24.7146C27.3022 24.6626 27.3022 24.6211 27.3141 24.5691C27.3495 24.5899 27.3495 24.5899 27.3495 24.5899Z" fill="white"/>
</svg>
