<?xml version="1.0" encoding="UTF-8"?>
<svg id="Layer_1" data-name="Layer 1" xmlns="http://www.w3.org/2000/svg" viewBox="0 0 63 87.87">
  <defs>
    <style>
      .cls-1 {
        fill: #fff;
      }

      .cls-2 {
        fill: #4aaf6e;
      }
    </style>
  </defs>
  <path class="cls-2" d="M31.5,0h0c17.4,0,31.5,14.1,31.5,31.5v24.87c0,17.4-14.1,31.5-31.5,31.5h0C14.1,87.87,0,73.77,0,56.37V31.5C0,14.1,14.1,0,31.5,0Z"/>
  <path class="cls-1" d="M32.27,66.8s-.02,0-.04,.02c-.04-.38-.06-.76-.1-1.12-.1-.98-.23-1.97-.45-2.95-.41-2.17-1.38-4.14-2.82-5.91-1.46-1.79-3.28-3.24-5.42-4.41-1.15-.62-2.31-1.17-3.48-1.76-.39-.19-.78-.4-1.15-.62-.19-.12-.39-.26-.52-.41-.45-.48-.45-1.14,0-1.62,.16-.17,.37-.33,.58-.45,.33-.21,.68-.34,1.07-.45,.68-.19,1.38-.38,2.08-.53,2.76-.62,5.54-1.1,8.31-1.6,1.61-.29,3.19-.59,4.76-.97,1.24-.29,2.49-.64,3.63-1.14,.78-.34,1.51-.72,2.14-1.26,1.09-.91,1.5-2.05,1.26-3.36-.12-.71-.39-1.36-.76-1.98-.91-1.52-2.19-2.72-3.79-3.71-1.38-.83-2.89-1.36-4.56-1.48-.97-.07-1.94-.02-2.89,.16-1.38,.24-2.7,.69-3.94,1.26-2.02,.97-3.85,2.22-5.44,3.69-2.14,1.97-3.77,4.21-4.86,6.77-.74,1.78-1.15,3.64-1.13,5.55,.02,1.07,.16,2.1,.43,3.14,.45,1.74,1.18,3.38,2.27,4.9,1.03,1.45,2.47,2.5,4.23,3.17,1.07,.4,2.19,.6,3.3,.76,1.01,.14,2.02,.29,3.01,.47,.74,.14,1.44,.38,2.08,.76,.52,.29,.85,.74,1.03,1.28,.16,.52,.25,1.05,.27,1.59,.04,.86-.04,1.71-.16,2.57-.02,.09-.02,.14-.02,.24,.35-.03,.68-.09,1.01-.1,.33-.02,.66,.03,.99,.03v-.24c-.04-.59-.06-1.17-.1-1.74-.02-.74,.02-1.47,.21-2.17,.19-.71,.62-1.22,1.34-1.57,.43-.21,.87-.38,1.34-.5,.87-.22,1.77-.33,2.66-.45,.85-.14,1.73-.24,2.58-.41,2-.4,3.65-1.33,5.01-2.67,.93-.91,1.61-1.98,2.12-3.12,.97-2.21,1.42-4.5,1.34-6.88-.02-.66-.1-1.33-.19-1.97-.21-1.28-.56-2.53-1.03-3.76-.39-1-.84-1.95-1.42-2.88-.06-.09-.12-.17-.17-.26-.04,.03-.02,.09,0,.1,.66,1.62,.87,3.28,.68,4.98-.14,1.05-.43,2.05-.91,3.02-.49,.93-1.17,1.74-2.08,2.41-.5,.34-1.01,.71-1.52,1.02-1.63,1.02-3.19,2.14-4.58,3.41-.8,.72-1.55,1.45-2.23,2.26-1.22,1.48-2.14,3.12-2.78,4.86-.6,1.6-.97,3.24-1.13,4.93-.02,.38-.06,.76-.1,1.12Zm-8.66-34.01c.08-.03,.14-.05,.19-.09,.74-.41,1.5-.84,2.25-1.22,1.69-.84,3.46-1.47,5.42-1.62,.72-.05,1.44-.03,2.14,.09,.68,.1,1.36,.29,2.02,.5,1.26,.4,2.47,.91,3.65,1.48,.23,.12,.47,.22,.72,.31,.1,.03,.19,.07,.29,.07,.16,.02,.23-.03,.21-.19-.02-.14-.04-.28-.1-.4-.16-.29-.29-.57-.47-.84-.93-1.4-2.02-2.71-3.24-3.91-1.38-1.38-2.91-2.64-4.53-3.81-.82-.59-1.65-1.16-2.49-1.71-.25-.17-.52-.29-.8-.43-.12-.05-.25-.09-.37-.09-.21-.02-.27,.09-.21,.24,.04,.12,.1,.24,.17,.34,.17,.29,.37,.57,.54,.86,.8,1.33,.91,2.72,.37,4.14-.33,.86-.84,1.64-1.44,2.36-.82,1-1.79,1.9-2.82,2.72-.5,.41-1.03,.79-1.53,1.19Zm1.96,18.15c.21,.33,.43,.62,.62,.95,.56-.29,1.09-.6,1.65-.88-.19-.31-.37-.59-.54-.88-.58,.28-1.15,.53-1.73,.81Zm3.07-.33c.58-.28,1.15-.53,1.71-.81-.16-.28-.27-.53-.43-.79-.6,.24-1.18,.5-1.79,.74,.17,.28,.33,.55,.5,.86Zm3.96-2.57c-.62,.22-1.22,.41-1.85,.64,.14,.28,.25,.5,.39,.76,.6-.24,1.17-.47,1.75-.71-.08-.22-.17-.45-.29-.69Zm2.97-.19c-.1-.21-.16-.4-.23-.59-.62,.17-1.24,.34-1.86,.5,.1,.24,.17,.45,.27,.66,.64-.17,1.22-.36,1.83-.57Zm2.68-.95c-.08-.17-.14-.31-.21-.45-.62,.19-1.2,.4-1.83,.59,.08,.19,.16,.36,.21,.55,.64-.26,1.22-.47,1.83-.69Zm2.45-1.38c-.6,.21-1.18,.41-1.79,.64,.06,.14,.12,.26,.17,.41,.62-.24,1.2-.47,1.79-.74-.04-.09-.1-.17-.14-.24,0-.02-.02-.03-.04-.07Zm.99-.1c.56-.31,1.05-.71,1.55-1.09-.06-.07-.12-.1-.16-.16-.52,.34-1.03,.66-1.55,1,.04,.07,.1,.16,.16,.24Zm3.15-3.21s-.04,0-.04-.02c-.1,.17-.21,.34-.31,.5-.12,.17-.23,.33-.37,.48s-.27,.29-.41,.45c.06,.03,.12,.07,.16,.1,.41-.43,.72-.9,.97-1.4,.04-.03,0-.09,0-.12Zm.5-1.45h-.04c-.02,.09-.04,.16-.06,.24-.02,.09-.06,.14-.06,.22-.02,.09-.08,.14-.04,.22,.02,0,.04,0,.06,.02,.04-.26,.1-.48,.14-.71Z"/>
  <path class="cls-1" d="M32.27,66.8c.04-.36,.06-.74,.1-1.1,.16-1.69,.54-3.33,1.13-4.93,.64-1.74,1.53-3.38,2.78-4.86,.68-.81,1.44-1.53,2.23-2.26,1.4-1.28,2.95-2.4,4.58-3.41,.52-.33,1.03-.67,1.52-1.02,.91-.66,1.57-1.47,2.08-2.41,.51-.97,.8-1.97,.91-3.02,.21-1.71,0-3.38-.68-4.98-.02-.03-.02-.05,0-.1,.06,.09,.12,.17,.17,.26,.56,.91,1.03,1.9,1.42,2.88,.47,1.22,.82,2.47,1.03,3.76,.1,.66,.17,1.31,.19,1.97,.08,2.36-.39,4.67-1.34,6.88-.5,1.14-1.18,2.21-2.12,3.12-1.38,1.34-3.01,2.26-5.01,2.67-.85,.17-1.73,.29-2.58,.41-.89,.14-1.79,.24-2.66,.45-.47,.12-.91,.29-1.34,.5-.72,.34-1.15,.86-1.34,1.57-.19,.72-.23,1.45-.21,2.17,.02,.59,.06,1.17,.1,1.74v.24c-.35-.02-.68-.05-.99-.03-.33,.02-.66,.07-1.01,.1,0-.09,0-.17,.02-.24,.12-.86,.17-1.71,.16-2.57-.02-.53-.1-1.07-.27-1.59-.16-.55-.5-.97-1.03-1.28-.64-.36-1.32-.62-2.08-.76-1.01-.19-2.02-.33-3.01-.47-1.15-.16-2.25-.34-3.3-.76-1.79-.67-3.19-1.72-4.23-3.17-1.09-1.52-1.81-3.14-2.25-4.9-.27-1.03-.41-2.09-.43-3.14-.04-1.91,.39-3.76,1.13-5.55,1.09-2.57,2.72-4.81,4.86-6.77,1.57-1.45,3.4-2.69,5.44-3.64,1.26-.59,2.54-1.02,3.94-1.26,.97-.17,1.92-.24,2.89-.16,1.67,.12,3.19,.64,4.56,1.48,1.59,.97,2.89,2.17,3.79,3.71,.37,.62,.64,1.28,.76,1.98,.23,1.33-.19,2.43-1.26,3.36-.62,.53-1.36,.93-2.14,1.26-1.17,.5-2.39,.84-3.63,1.14-1.57,.38-3.17,.67-4.76,.97-2.78,.5-5.57,.98-8.31,1.6-.7,.16-1.38,.34-2.08,.53-.39,.1-.74,.24-1.07,.45-.21,.14-.41,.28-.58,.45-.45,.47-.45,1.14,0,1.62,.16,.16,.33,.31,.52,.41,.39,.22,.76,.43,1.15,.62,1.15,.59,2.33,1.14,3.48,1.76,2.12,1.16,3.94,2.6,5.42,4.41,1.44,1.78,2.41,3.72,2.84,5.9,.21,.97,.35,1.95,.45,2.95,.04,.38,.06,.76,.1,1.12-.02-.07,0-.07,0-.07Z"/>
  <path class="cls-1" d="M23.61,32.79c.5-.4,1.03-.78,1.51-1.17,1.03-.83,2-1.71,2.82-2.72,.6-.72,1.09-1.5,1.44-2.36,.56-1.43,.45-2.81-.37-4.14-.17-.29-.37-.59-.54-.86-.08-.12-.14-.22-.17-.34-.04-.17,.04-.26,.25-.24,.14,.02,.27,.03,.37,.09,.27,.12,.54,.24,.78,.41,.84,.57,1.67,1.12,2.47,1.72,1.61,1.17,3.15,2.43,4.53,3.81,1.2,1.22,2.31,2.52,3.24,3.91,.17,.28,.33,.55,.47,.84,.06,.12,.1,.26,.1,.4,.02,.14-.06,.19-.21,.19-.1-.02-.21-.03-.29-.07-.23-.1-.49-.21-.72-.31-1.17-.57-2.37-1.09-3.65-1.48-.66-.21-1.32-.4-2.02-.5-.72-.1-1.44-.14-2.14-.09-1.96,.16-3.71,.78-5.42,1.62-.78,.38-1.5,.81-2.25,1.22-.06,.03-.12,.07-.17,.1t0-.03Z"/>
  <path class="cls-1" d="M25.57,50.94c.58-.29,1.15-.55,1.73-.83,.17,.29,.35,.57,.54,.88-.56,.29-1.09,.59-1.65,.88-.21-.31-.41-.6-.62-.93Z"/>
  <path class="cls-1" d="M28.64,50.61c-.17-.29-.33-.57-.5-.86,.6-.24,1.18-.5,1.79-.74,.16,.28,.27,.52,.43,.79-.56,.28-1.13,.53-1.71,.81Z"/>
  <path class="cls-1" d="M32.6,48.04c.1,.24,.21,.47,.31,.71-.58,.24-1.17,.47-1.75,.71-.14-.26-.25-.5-.39-.76,.6-.22,1.2-.43,1.83-.66Z"/>
  <path class="cls-1" d="M35.57,47.85c-.62,.19-1.2,.4-1.83,.6-.1-.22-.17-.43-.27-.66,.62-.17,1.22-.34,1.86-.5,.1,.17,.17,.34,.23,.55Z"/>
  <path class="cls-1" d="M38.25,46.9c-.62,.22-1.2,.45-1.81,.66-.08-.19-.16-.34-.21-.55,.62-.19,1.2-.4,1.83-.59,.06,.17,.12,.31,.19,.48Z"/>
  <path class="cls-1" d="M40.7,45.53s.04,.05,.06,.07c.04,.09,.1,.14,.14,.24-.58,.28-1.17,.5-1.79,.74-.06-.14-.12-.28-.17-.41,.58-.21,1.17-.41,1.77-.64Z"/>
  <path class="cls-1" d="M41.69,45.42c-.06-.09-.12-.17-.16-.24,.52-.34,1.03-.66,1.55-1,.04,.05,.1,.09,.16,.16-.49,.4-.97,.79-1.55,1.09Z"/>
  <path class="cls-1" d="M44.84,42.22s.04,.09,.02,.1c-.25,.5-.56,.97-.97,1.4-.06-.03-.1-.07-.16-.1,.16-.16,.27-.29,.41-.45,.14-.16,.25-.31,.37-.48,.12-.16,.21-.33,.31-.5t.02,.03Z"/>
  <path class="cls-1" d="M45.34,40.77c-.06,.22-.1,.45-.16,.67-.02,0-.04,0-.06-.02-.04-.09,.04-.14,.04-.22,.02-.09,.04-.14,.06-.22,.04-.09,.04-.16,.06-.24l.06,.03Z"/>
</svg>